  0
SECTION
  2
BLOCKS
  0
ENDSEC
  0
SECTION
  2
ENTITIES
  0
LINE
  8
0
 10
6.1198
 20
137.24
 11
12.2019
 21
137.96
  0
LINE
  8
0
 10
12.2019
 20
137.96
 11
18.2087
 21
139.155
  0
LINE
  8
0
 10
18.2087
 20
139.155
 11
24.1033
 21
140.818
  0
LINE
  8
0
 10
24.1033
 20
140.818
 11
29.8493
 21
142.937
  0
LINE
  8
0
 10
29.8493
 20
142.937
 11
35.4113
 21
145.501
  0
LINE
  8
0
 10
35.4113
 20
145.501
 11
40.7549
 21
148.494
  0
LINE
  8
0
 10
40.7549
 20
148.494
 11
45.8472
 21
151.897
  0
LINE
  8
0
 10
45.8472
 20
151.897
 11
50.6569
 21
155.688
  0
LINE
  8
0
 10
50.6569
 20
155.688
 11
55.1543
 21
159.846
  0
LINE
  8
0
 10
55.1543
 20
159.846
 11
59.3117
 21
164.343
  0
LINE
  8
0
 10
59.3117
 20
164.343
 11
63.1033
 21
169.153
  0
LINE
  8
0
 10
63.1033
 20
169.153
 11
66.5059
 21
174.245
  0
LINE
  8
0
 10
66.5059
 20
174.245
 11
69.4985
 21
179.589
  0
LINE
  8
0
 10
69.4985
 20
179.589
 11
72.0626
 21
185.151
  0
LINE
  8
0
 10
72.0626
 20
185.151
 11
74.1824
 21
190.897
  0
LINE
  8
0
 10
74.1824
 20
190.897
 11
75.8448
 21
196.791
  0
LINE
  8
0
 10
75.8448
 20
196.791
 11
77.0397
 21
202.798
  0
LINE
  8
0
 10
77.0397
 20
202.798
 11
77.7596
 21
208.88
  0
LINE
  8
0
 10
77.7596
 20
208.88
 11
77.8148
 21
210.287
  0
LINE
  8
0
 10
77.8148
 20
210.287
 11
78.8891
 21
211.111
  0
LINE
  8
0
 10
78.8891
 20
211.111
 11
79.7631
 21
212.25
  0
LINE
  8
0
 10
79.7631
 20
212.25
 11
80.3126
 21
213.576
  0
LINE
  8
0
 10
80.3126
 20
213.576
 11
80.5
 21
215
  0
LINE
  8
0
 10
80.5
 20
215
 11
80.3126
 21
216.423
  0
LINE
  8
0
 10
80.3126
 20
216.423
 11
79.7631
 21
217.75
  0
LINE
  8
0
 10
79.7631
 20
217.75
 11
78.8891
 21
218.889
  0
LINE
  8
0
 10
78.8891
 20
218.889
 11
77.8148
 21
219.713
  0
LINE
  8
0
 10
77.8148
 20
219.713
 11
77.7596
 21
221.12
  0
LINE
  8
0
 10
77.7596
 20
221.12
 11
77.0397
 21
227.202
  0
LINE
  8
0
 10
77.0397
 20
227.202
 11
75.8448
 21
233.209
  0
LINE
  8
0
 10
75.8448
 20
233.209
 11
74.1824
 21
239.103
  0
LINE
  8
0
 10
74.1824
 20
239.103
 11
72.0626
 21
244.849
  0
LINE
  8
0
 10
72.0626
 20
244.849
 11
69.4985
 21
250.411
  0
LINE
  8
0
 10
69.4985
 20
250.411
 11
66.5059
 21
255.755
  0
LINE
  8
0
 10
66.5059
 20
255.755
 11
63.1033
 21
260.847
  0
LINE
  8
0
 10
63.1033
 20
260.847
 11
59.3117
 21
265.657
  0
LINE
  8
0
 10
59.3117
 20
265.657
 11
55.1543
 21
270.154
  0
LINE
  8
0
 10
55.1543
 20
270.154
 11
50.6569
 21
274.312
  0
LINE
  8
0
 10
50.6569
 20
274.312
 11
45.8472
 21
278.103
  0
LINE
  8
0
 10
45.8472
 20
278.103
 11
40.7549
 21
281.506
  0
LINE
  8
0
 10
40.7549
 20
281.506
 11
35.4113
 21
284.499
  0
LINE
  8
0
 10
35.4113
 20
284.499
 11
29.8493
 21
287.063
  0
LINE
  8
0
 10
29.8493
 20
287.063
 11
24.1033
 21
289.182
  0
LINE
  8
0
 10
24.1033
 20
289.182
 11
18.2087
 21
290.845
  0
LINE
  8
0
 10
18.2087
 20
290.845
 11
12.2019
 21
292.04
  0
LINE
  8
0
 10
12.2019
 20
292.04
 11
6.1198
 21
292.76
  0
LINE
  8
0
 10
6.1198
 20
292.76
 11
0
 21
293
  0
LINE
  8
0
 10
0
 20
293
 11
-6.1198
 21
292.76
  0
LINE
  8
0
 10
-6.1198
 20
292.76
 11
-12.2019
 21
292.04
  0
LINE
  8
0
 10
-12.2019
 20
292.04
 11
-18.2087
 21
290.845
  0
LINE
  8
0
 10
-18.2087
 20
290.845
 11
-24.1033
 21
289.182
  0
LINE
  8
0
 10
-24.1033
 20
289.182
 11
-29.8493
 21
287.063
  0
LINE
  8
0
 10
-29.8493
 20
287.063
 11
-35.4113
 21
284.499
  0
LINE
  8
0
 10
-35.4113
 20
284.499
 11
-40.7549
 21
281.506
  0
LINE
  8
0
 10
-40.7549
 20
281.506
 11
-45.8472
 21
278.103
  0
LINE
  8
0
 10
-45.8472
 20
278.103
 11
-50.6569
 21
274.312
  0
LINE
  8
0
 10
-50.6569
 20
274.312
 11
-55.1543
 21
270.154
  0
LINE
  8
0
 10
-55.1543
 20
270.154
 11
-59.3117
 21
265.657
  0
LINE
  8
0
 10
-59.3117
 20
265.657
 11
-63.1033
 21
260.847
  0
LINE
  8
0
 10
-63.1033
 20
260.847
 11
-66.5059
 21
255.755
  0
LINE
  8
0
 10
-66.5059
 20
255.755
 11
-69.4985
 21
250.411
  0
LINE
  8
0
 10
-69.4985
 20
250.411
 11
-72.0626
 21
244.849
  0
LINE
  8
0
 10
-72.0626
 20
244.849
 11
-74.1824
 21
239.103
  0
LINE
  8
0
 10
-74.1824
 20
239.103
 11
-75.8448
 21
233.209
  0
LINE
  8
0
 10
-75.8448
 20
233.209
 11
-77.0397
 21
227.202
  0
LINE
  8
0
 10
-77.0397
 20
227.202
 11
-77.7596
 21
221.12
  0
LINE
  8
0
 10
-77.7596
 20
221.12
 11
-77.8148
 21
219.713
  0
LINE
  8
0
 10
-77.8148
 20
219.713
 11
-78.8891
 21
218.889
  0
LINE
  8
0
 10
-78.8891
 20
218.889
 11
-79.7631
 21
217.75
  0
LINE
  8
0
 10
-79.7631
 20
217.75
 11
-80.3126
 21
216.423
  0
LINE
  8
0
 10
-80.3126
 20
216.423
 11
-80.5
 21
215
  0
LINE
  8
0
 10
-80.5
 20
215
 11
-80.3126
 21
213.576
  0
LINE
  8
0
 10
-80.3126
 20
213.576
 11
-79.7631
 21
212.25
  0
LINE
  8
0
 10
-79.7631
 20
212.25
 11
-78.8891
 21
211.111
  0
LINE
  8
0
 10
-78.8891
 20
211.111
 11
-77.8148
 21
210.287
  0
LINE
  8
0
 10
-77.8148
 20
210.287
 11
-77.7596
 21
208.88
  0
LINE
  8
0
 10
-77.7596
 20
208.88
 11
-77.0397
 21
202.798
  0
LINE
  8
0
 10
-77.0397
 20
202.798
 11
-75.8448
 21
196.791
  0
LINE
  8
0
 10
-75.8448
 20
196.791
 11
-74.1824
 21
190.897
  0
LINE
  8
0
 10
-74.1824
 20
190.897
 11
-72.0626
 21
185.151
  0
LINE
  8
0
 10
-72.0626
 20
185.151
 11
-71.7872
 21
184.553
  0
LINE
  8
0
 10
-71.7872
 20
184.553
 11
-74.3656
 21
183.909
  0
LINE
  8
0
 10
-74.3656
 20
183.909
 11
-64.3656
 21
143.909
  0
LINE
  8
0
 10
-64.3656
 20
143.909
 11
-55.6344
 21
146.091
  0
LINE
  8
0
 10
-55.6344
 20
146.091
 11
-60.6085
 21
165.988
  0
LINE
  8
0
 10
-60.6085
 20
165.988
 11
-59.3117
 21
164.343
  0
LINE
  8
0
 10
-59.3117
 20
164.343
 11
-55.1543
 21
159.846
  0
LINE
  8
0
 10
-55.1543
 20
159.846
 11
-50.6569
 21
155.688
  0
LINE
  8
0
 10
-50.6569
 20
155.688
 11
-45.8472
 21
151.897
  0
LINE
  8
0
 10
-45.8472
 20
151.897
 11
-40.7549
 21
148.494
  0
LINE
  8
0
 10
-40.7549
 20
148.494
 11
-35.4113
 21
145.501
  0
LINE
  8
0
 10
-35.4113
 20
145.501
 11
-29.8493
 21
142.937
  0
LINE
  8
0
 10
-29.8493
 20
142.937
 11
-24.1033
 21
140.818
  0
LINE
  8
0
 10
-24.1033
 20
140.818
 11
-18.2087
 21
139.155
  0
LINE
  8
0
 10
-18.2087
 20
139.155
 11
-12.2019
 21
137.96
  0
LINE
  8
0
 10
-12.2019
 20
137.96
 11
-6.1198
 21
137.24
  0
LINE
  8
0
 10
-6.1198
 20
137.24
 11
0
 21
137
  0
LINE
  8
0
 10
0
 20
137
 11
6.1198
 21
137.24
  0
LINE
  8
0
 10
-72
 20
170
 11
-78
 21
170
  0
LINE
  8
0
 10
-78
 20
170
 11
-78
 21
80
  0
LINE
  8
0
 10
-78
 20
80
 11
-72
 21
80
  0
LINE
  8
0
 10
-72
 20
80
 11
-72
 21
170
  0
LINE
  8
0
 10
78
 20
170
 11
72
 21
170
  0
LINE
  8
0
 10
72
 20
170
 11
72
 21
80
  0
LINE
  8
0
 10
72
 20
80
 11
78
 21
80
  0
LINE
  8
0
 10
78
 20
80
 11
78
 21
170
  0
LINE
  8
0
 10
50.1611
 20
133.871
 11
44.8389
 21
141.129
  0
LINE
  8
0
 10
44.8389
 20
141.129
 11
-30.1611
 21
86.1288
  0
LINE
  8
0
 10
-30.1611
 20
86.1288
 11
-24.8389
 21
78.8712
  0
LINE
  8
0
 10
-24.8389
 20
78.8712
 11
50.1611
 21
133.871
  0
LINE
  8
0
 10
20.7865
 20
-8.41994
 11
29.2135
 21
-11.58
  0
LINE
  8
0
 10
29.2135
 20
-11.58
 11
59.2135
 21
68.4199
  0
LINE
  8
0
 10
59.2135
 20
68.4199
 11
50.7865
 21
71.58
  0
LINE
  8
0
 10
50.7865
 20
71.58
 11
24
 21
0.149353
  0
LINE
  8
0
 10
24
 20
0.149353
 11
24
 21
7
  0
LINE
  8
0
 10
24
 20
7
 11
-14.5164
 21
7
  0
LINE
  8
0
 10
-14.5164
 20
7
 11
-16.5731
 21
9.41652
  0
LINE
  8
0
 10
-16.5731
 20
9.41652
 11
-19.4125
 21
7
  0
LINE
  8
0
 10
-19.4125
 20
7
 11
-24
 21
7
  0
LINE
  8
0
 10
-24
 20
7
 11
-24
 21
-7
  0
LINE
  8
0
 10
-24
 20
-7
 11
-14.4197
 21
-7
  0
LINE
  8
0
 10
-14.4197
 20
-7
 11
16.5731
 21
-43.4165
  0
LINE
  8
0
 10
16.5731
 20
-43.4165
 11
23.4269
 21
-37.5835
  0
LINE
  8
0
 10
23.4269
 20
-37.5835
 11
5
 21
-15.9318
  0
LINE
  8
0
 10
5
 20
-15.9318
 11
5
 21
-7
  0
LINE
  8
0
 10
5
 20
-7
 11
21.319
 21
-7
  0
LINE
  8
0
 10
21.319
 20
-7
 11
20.7865
 21
-8.41994
  0
ENDSEC
  0
SECTION
  2
OBJECTS
  0
DICTIONARY
  0
ENDSEC
  0
EOF
